# xmcd
#
# Track frame offsets:
#	183
#	14668
#	28460
#	44245
#	62280
#	80633
#	93020
#	106718
#	126208
#	148093
#	164865
#	187233
#	210945
#	229695
#	247600
#	269560
#
# Disc length: 3927 seconds
#
# Revision: 4
# Processed by: cddbd v1.5.2PL0 Copyright (c) Steve Scherf et al.
# Submitted via: EasyCDDAExtractor 12.0.0.1
#
DISCID=e50f5510
DTITLE=Various Artist - The 80's - Album of the Decade [CD1)
DYEAR=1989
DGENRE=Pop
TTITLE0=Pink Floyd - Another Brick In The Wall
TTITLE1=The Pretenders - Brass in pocket
TTITLE2=Blondie - Call me
TTITLE3=Survivor - Eye of the tiger
TTITLE4=Dexys Midnight Runners - Come on eileen
TTITLE5=Madness - House of fun
TTITLE6=UB40 - Red red wine
TTITLE7=The Police - Every little thing she does is magic
TTITLE8=Roxy Music - Jealous guy
TTITLE9=Paul McCartney and stevie wonder - Ebony and ivory
TTITLE10=George Michael - Careless whisper
TTITLE11=Wham! - Freedom
TTITLE12=Duran Duran - Is there something i should know
TTITLE13=Culture Club - Karma chamaleon
TTITLE14=paul Young - Where i lay my hat that`s my home
TTITLE15=Spandau Ballet - tTue
EXTD=
EXTT0=
EXTT1=
EXTT2=
EXTT3=
EXTT4=
EXTT5=
EXTT6=
EXTT7=
EXTT8=
EXTT9=
EXTT10=
EXTT11=
EXTT12=
EXTT13=
EXTT14=
EXTT15=
PLAYORDER=
